<?xml version="1.0" encoding="UTF-8" standalone="no"?>
<!-- Created with Inkscape (http://www.inkscape.org/) -->
<svg xmlns="http://www.w3.org/2000/svg" xmlns:svg="http://www.w3.org/2000/svg" version="1.1" id="svg1" width="773.8493" height="135.748" viewBox="0 0 773.84931 135.748">
  <defs id="defs1">
    <clipPath clipPathUnits="userSpaceOnUse" id="clipPath2">
      <path d="M 0,0 H 581 V 102 H 0 Z" id="path2"/>
    </clipPath>
    <clipPath clipPathUnits="userSpaceOnUse" id="clipPath3">
      <path d="M 0,0 H 581 V 102 H 0 Z" id="path3"/>
    </clipPath>
    <clipPath clipPathUnits="userSpaceOnUse" id="clipPath4">
      <path d="M 0,0 H 581 V 102 H 0 Z" id="path4"/>
    </clipPath>
    <clipPath clipPathUnits="userSpaceOnUse" id="clipPath8">
      <path d="M 0,0 H 581 V 102 H 0 Z" id="path8"/>
    </clipPath>
    <clipPath clipPathUnits="userSpaceOnUse" id="clipPath10">
      <path d="M 0,0 H 581 V 102 H 0 Z" id="path10"/>
    </clipPath>
    <clipPath clipPathUnits="userSpaceOnUse" id="clipPath12">
      <path d="M 0,0 H 581 V 102 H 0 Z" id="path12"/>
    </clipPath>
  </defs>
  <g id="g1" style="opacity:1" transform="translate(0,-0.2520034)">
    <path id="path1" d="m 50.895,19.066 c 8.987,0 16.308,3.05 21.955,9.148 5.648,6.101 8.472,13.667 8.472,22.703 0,9.035 -2.824,16.602 -8.472,22.702 -5.647,6.099 -13.01,9.149 -22.09,9.149 -8.99,0 -16.311,-3.05 -21.958,-9.149 -5.648,-6.1 -8.471,-13.667 -8.471,-22.702 0,-9.036 2.823,-16.602 8.471,-22.703 5.647,-6.098 13.012,-9.148 22.093,-9.148 z M 14.571,14.696 C 4.856,24.43 0,36.504 0,50.917 c 0,14.457 4.856,26.542 14.571,36.255 9.713,9.714 21.797,14.57 36.255,14.57 14.458,0 26.542,-4.856 36.255,-14.57 9.714,-9.713 14.571,-21.798 14.571,-36.255 0,-14.459 -4.857,-26.543 -14.571,-36.255 C 77.368,4.947 65.284,0.09 50.826,0.09 36.368,0.09 24.284,4.958 14.571,14.696" style="fill:#f14c46;fill-opacity:1;fill-rule:nonzero;stroke:none" transform="matrix(1.3333333,0,0,-1.3333333,0,136)" clip-path="url(#clipPath2)"/>
    <g id="g6">
      <path d="m 531.25,27.102 c -0.435,-0.453 -1.048,-0.735 -1.724,-0.735 -0.661,0 -1.258,0.266 -1.69,0.699 L 498.998,59.049 V 2.478 c 0,-1.317 -1.072,-2.388 -2.388,-2.388 h -15.555 c -1.32,0 -2.388,1.071 -2.388,2.388 v 96.875 c 0,1.32 1.071,2.389 2.388,2.389 l 3.312,0.057 c 0.719,0 1.366,-0.32 1.804,-0.827 l 43.32,-49.378 43.386,49.378 c 0.439,0.507 1.086,0.678 1.806,0.678 H 578 c 1.317,0 2.387,-1.069 2.387,-2.389 V 2.478 c 0,-1.317 -1.07,-2.388 -2.387,-2.388 h -15.59 c -1.32,0 -2.388,1.071 -2.388,2.388 L 559.989,59.049 531.25,27.102" style="fill:#f14c46;fill-opacity:1;fill-rule:nonzero;stroke:none" transform="matrix(1.3333333,0,0,-1.3333333,0,136)" clip-path="url(#clipPath3)" id="path5"/>
      <path d="m 399.612,42.225 12.861,32.319 12.385,-32.319 z m 60.888,0 h -14.656 l -23.175,57.988 -0.068,0.186 c -0.405,0.745 -1.196,1.251 -2.101,1.251 h -17.132 c -0.879,0 -1.645,-0.476 -2.062,-1.182 l -0.09,-0.187 L 362.459,3.302 C 362.344,3.021 362.28,2.71 362.28,2.388 362.28,1.069 363.348,0 364.667,0 h 16.527 c 1.061,0 1.961,0.692 2.271,1.649 l 8.057,20.245 h 41.126 L 440.389,1.692 C 440.688,0.713 441.597,0 442.672,0 h 16.527 c 1.317,0 2.387,1.069 2.387,2.388 0,0.362 -0.08,0.706 -0.227,1.017 l -7.39,18.489 h 6.531 c 1.317,0 2.387,1.069 2.387,2.388 v 15.553 c 0,1.32 -1.07,2.39 -2.387,2.39" style="fill:#f14c46;fill-opacity:1;fill-rule:nonzero;stroke:none" transform="matrix(1.3333333,0,0,-1.3333333,0,136)" clip-path="url(#clipPath4)" id="path6"/>
    </g>
    <path id="path7" d="m 350.501,89.707 c 0.979,-0.885 1.054,-2.397 0.171,-3.374 L 340.287,74.962 c -0.886,-0.978 -2.396,-1.052 -3.374,-0.169 l -0.416,0.237 c -6.359,4.3 -13.52,6.45 -21.487,6.45 -9.123,-0.046 -16.481,-2.892 -22.055,-8.538 -5.581,-5.648 -8.372,-12.877 -8.372,-21.686 0.042,-9.443 2.871,-16.941 8.469,-22.499 5.605,-5.557 12.97,-8.335 22.093,-8.335 7.317,0 12.946,1.444 16.876,4.336 V 42.174 L 320.88,42.147 c -1.319,0 -2.388,1.07 -2.388,2.389 V 58.7 c 0,1.319 1.066,2.388 2.388,2.388 h 29.081 c 1.318,0 2.388,-1.069 2.388,-2.388 V 14.717 c 0,-0.642 -0.253,-1.225 -0.668,-1.654 l -0.149,-0.119 C 341.35,4.373 329.176,0.09 315.01,0.09 c -14.368,0.045 -26.417,4.913 -36.151,14.606 -9.741,9.69 -14.607,21.832 -14.607,36.424 0.043,14.276 4.923,26.282 14.638,36.02 9.713,9.734 21.752,14.602 36.12,14.602 13.545,0 25.295,-3.942 35.257,-11.826 l 0.234,-0.209" style="fill:#f14c46;fill-opacity:1;fill-rule:nonzero;stroke:none" transform="matrix(1.3333333,0,0,-1.3333333,0,136)" clip-path="url(#clipPath8)"/>
    <path id="path9" d="m 249.243,19.179 h -6.555 v 63.544 h 5.555 c 1.317,0 2.388,1.069 2.388,2.388 v 14.311 c 0,1.32 -1.071,2.389 -2.388,2.389 h -31.348 c -1.319,0 -2.388,-1.069 -2.388,-2.389 V 85.111 c 0,-1.319 1.069,-2.388 2.388,-2.388 h 5.531 V 19.179 h -6.531 c -1.319,0 -2.388,-1.069 -2.388,-2.389 V 2.478 c 0,-1.317 1.069,-2.388 2.388,-2.388 h 33.348 c 1.317,0 2.388,1.071 2.388,2.388 V 16.79 c 0,1.32 -1.071,2.389 -2.388,2.389" style="fill:#f14c46;fill-opacity:1;fill-rule:nonzero;stroke:none" transform="matrix(1.3333333,0,0,-1.3333333,0,136)" clip-path="url(#clipPath10)"/>
    <path id="path11" d="M 146.827,82.781 H 165 c 8.033,-0.27 12.165,-3.747 12.39,-10.428 -0.225,-7.313 -4.423,-11.037 -12.594,-11.172 l -3.452,0.002 z M 199.848,3.897 173.254,43.462 c 15.076,3.257 22.623,12.95 22.623,29.095 0,19.501 -11.852,29.252 -35.551,29.252 H 118.41 c -1.32,0 -2.388,-1.07 -2.388,-2.39 v -6.367 c 0,-0.506 0.156,-0.974 0.424,-1.359 l 20.488,-30.496 -18.524,0.01 c -1.32,0 -2.388,-1.069 -2.388,-2.389 V 2.533 c 0,-1.32 1.068,-2.388 2.388,-2.388 h 15.545 c 1.319,0 2.388,1.068 2.388,2.388 l 0.014,39.688 h 13.325 L 177.264,1.165 c 0.429,-0.634 1.156,-1.051 1.979,-1.051 h 18.664 c 1.32,0 2.388,1.071 2.388,2.388 0,0.521 -0.166,1.004 -0.447,1.395" style="fill:#f14c46;fill-opacity:1;fill-rule:nonzero;stroke:none" transform="matrix(1.3333333,0,0,-1.3333333,0,136)" clip-path="url(#clipPath12)"/>
  </g>
</svg>
