<?xml version="1.0" encoding="UTF-8"?>
<svg width="700pt" height="700pt" version="1.1" viewBox="0 0 700 700" xmlns="http://www.w3.org/2000/svg">
 <path d="m487.88 371.35-91.422-91.367 91.352-91.422c10.535-10.5 10.535-27.387 0.035156-37.922l-8.4883-8.5039c-4.9883-5.1094-11.812-7.8906-18.988-7.8906h-0.035156c-7.1758 0-13.914 2.8164-18.953 7.875l-91.387 91.453-91.422-91.352c-10.484-10.5-27.352-10.551-37.887-0.050781l-8.5039 8.418c-5.1289 5.0234-7.9258 11.848-7.9258 19.004 0 7.1914 2.8164 13.965 7.875 19.004l91.453 91.387-91.367 91.422c-10.535 10.5-10.535 27.387-0.035156 37.957l8.4883 8.4883c5.0234 5.1094 11.828 7.8906 19.004 7.8906 7.1406 0 13.965-2.8516 18.988-7.875l91.367-91.438 91.387 91.332c5.1797 5.2344 12.074 7.875 18.988 7.875 6.8438 0 13.703-2.6094 18.934-7.8242l8.4883-8.4688c5.1445-4.9883 7.9258-11.812 7.9258-18.988 0.035156-7.1758-2.7812-13.949-7.8398-19.004z"/>
</svg>
