<?xml version="1.0" encoding="UTF-8"?>
<svg width="700pt" height="600pt" version="1.1" viewBox="0 0 700 600" xmlns="http://www.w3.org/2000/svg">
 <path d="m208.36 161.96c-6.2617-0.003907-12.27 2.4844-16.699 6.9141s-6.9141 10.438-6.9141 16.699c0.003906 6.2578 2.4961 12.262 6.9219 16.684 4.4297 4.4258 10.434 6.9102 16.691 6.9102h283.31c6.2539-0.007813 12.25-2.4922 16.676-6.918 4.4219-4.4219 6.9102-10.422 6.9141-16.676 0-6.2578-2.4844-12.262-6.9062-16.691-4.4258-4.4297-10.426-6.918-16.684-6.9219zm0 94.438c-6.2617-0.003907-12.27 2.4844-16.699 6.9141s-6.9141 10.438-6.9141 16.699c0.003906 6.2617 2.4961 12.262 6.9219 16.684 4.4297 4.4258 10.434 6.9102 16.691 6.9102h283.31c6.2539-0.007813 12.25-2.4922 16.676-6.918 4.4219-4.4219 6.9102-10.418 6.9141-16.676 0-6.2578-2.4844-12.262-6.9062-16.691-4.4258-4.4297-10.426-6.918-16.684-6.9219zm0 94.438c-6.2578-0.003907-12.262 2.4805-16.691 6.9062-4.4258 4.4219-6.918 10.426-6.9219 16.684 0 6.2656 2.4844 12.273 6.9141 16.699 4.4297 4.4297 10.438 6.918 16.699 6.918h283.31c6.2578-0.003907 12.258-2.4961 16.684-6.9258 4.4219-4.4258 6.9062-10.43 6.9062-16.691-0.003906-6.2539-2.4922-12.254-6.9141-16.676-4.4258-4.4219-10.422-6.9102-16.676-6.9141z"/>
</svg>
