<svg xmlns="http://www.w3.org/2000/svg" viewBox="0 0 20 20">
  <title>refresh</title>
  <g>
    <polyline points="0 1.7 6.1 1.7 6.1 7.8" fill="none"/>
    <polyline points="13.9 12.2 13.9 18.3 20 18.3" fill="none"/>
    <polyline points="13.9 12.2 13.9 18.3 20 18.3" fill="none"/>
    <path d="M10,19.1H9.1l-.9-.2-.9-.2-.9-.3L5.6,18l-.7-.4L4.2,17l-.7-.5L3,15.8l-.6-.7L2,14.4l-.4-.8-.3-.9a2.9,2.9,0,0,1-.2-.9,2.9,2.9,0,0,1-.2-.9V9.1a2.9,2.9,0,0,1,.2-.9,2.9,2.9,0,0,1,.2-.9l.3-.9L2,5.6l.4-.7L3,4.2l.5-.7L4.2,3l.7-.6L5.6,2" fill="none"/>
    <path d="M10,.9h.9l.9.2.9.2.9.3.8.4.7.4.7.6.7.5.5.7.6.7.4.7.4.8.3.9a2.9,2.9,0,0,1,.2.9,2.9,2.9,0,0,1,.2.9v1.8a2.9,2.9,0,0,1-.2.9,2.9,2.9,0,0,1-.2.9l-.3.9-.4.8-.4.7-.6.7-.5.7-.7.5-.7.6-.7.4" fill="none"/>
  </g>
</svg>
