<?xml version="1.0" encoding="utf-8"?>
<!-- Generator: Adobe Illustrator 23.1.1, SVG Export Plug-In . SVG Version: 6.00 Build 0)  -->
<svg version="1.1" id="Ebene_1" xmlns="http://www.w3.org/2000/svg" xmlns:xlink="http://www.w3.org/1999/xlink" x="0px" y="0px"
	 viewBox="0 0 20 20" style="enable-background:new 0 0 20 20;" xml:space="preserve">
<style type="text/css">
	.st0{fill:none;}
</style>
<rect y="3.1" class="st0" width="20" height="16.9"/>
<line class="st0" x1="0" y1="6.7" x2="20" y2="6.7"/>
<polyline class="st0" points="3.1,3.1 3.1,0 6.2,0 6.2,3.1 "/>
<polyline class="st0" points="13.8,3.1 13.8,0 16.9,0 16.9,3.1 "/>
<polyline class="st0" points="6.5,9.7 7.6,9.7 7.6,17.2 "/>
<path class="st0" d="M10,16.8c0.4,0.4,0.9,0.6,1.5,0.6s1.1-0.2,1.5-0.6s0.6-0.9,0.6-1.4c0-0.6-0.2-1.1-0.6-1.4
	c-0.4-0.4-0.9-0.6-1.5-0.6c0.6,0,1.1-0.2,1.5-0.6c0.4-0.4,0.6-0.9,0.6-1.4c0-0.6-0.2-1.1-0.6-1.4c-0.4-0.4-0.9-0.6-1.5-0.6
	S10.4,9.6,10,10"/>
</svg>
