<svg xmlns="http://www.w3.org/2000/svg" viewBox="0 0 44 40"><title>chat@1x</title><g id="Layer_2" data-name="Layer 2"><g id="General"><g id="Chat_Bubble_2x.png" data-name="Chat Bubble@2x.png"><path d="M22,0C9.85,0,0,8.06,0,18A16.42,16.42,0,0,0,6.23,30.53L4,40l11.83-4.73A26.62,26.62,0,0,0,22,36c12.15,0,22-8.06,22-18S34.15,0,22,0Zm0,34a24.59,24.59,0,0,1-5.71-.68,2,2,0,0,0-.46-.05,2,2,0,0,0-.74.14l-8.26,3.3L8.17,31a2,2,0,0,0-.66-2A14.42,14.42,0,0,1,2,18C2,9.18,11,2,22,2S42,9.18,42,18,33,34,22,34Z"/></g></g></g></svg>