<?xml version="1.0" encoding="utf-8"?>
<!-- Generator: Adobe Illustrator 23.1.1, SVG Export Plug-In . SVG Version: 6.00 Build 0)  -->
<svg version="1.1" id="Ebene_1" xmlns="http://www.w3.org/2000/svg" xmlns:xlink="http://www.w3.org/1999/xlink" x="0px" y="0px"
	 viewBox="0 0 20 20" style="enable-background:new 0 0 20 20;" xml:space="preserve">
<style type="text/css">
	.st0{fill:none;}
</style>
<title>edit-accessory</title>
<polygon class="st0" points="12.9,17 10,17 10,14 17,7 20,10 "/>
<polyline class="st0" points="15,17.7 15,20 0,20 0,3.1 3.7,3.1 "/>
<polyline class="st0" points="11.3,3.1 15,3.1 15,6.2 "/>
<path class="st0" d="M9.8,1.5V0H5.2v1.5H4.4C4,1.5,3.7,1.9,3.7,2.3v2.3h7.7V2.3c0-0.4-0.3-0.8-0.8-0.8H9.8z"/>
<line class="st0" x1="3" y1="8.6" x2="12.3" y2="8.6"/>
<line class="st0" x1="3" y1="12.3" x2="8.7" y2="12.3"/>
<line class="st0" x1="3" y1="16" x2="7" y2="16"/>
</svg>
