<?xml version="1.0" encoding="utf-8"?>
<!-- Generator: Adobe Illustrator 23.1.1, SVG Export Plug-In . SVG Version: 6.00 Build 0)  -->
<svg version="1.1" id="Ebene_1" xmlns="http://www.w3.org/2000/svg" xmlns:xlink="http://www.w3.org/1999/xlink" x="0px" y="0px"
	 viewBox="0 0 20 20" style="enable-background:new 0 0 20 20;" xml:space="preserve">
<style type="text/css">
	.st0{fill:none;}
</style>
<polyline class="st0" points="17.7,8 17.7,6.2 11.5,0 2.3,0 2.3,8 "/>
<polyline class="st0" points="2.3,18 2.3,20 17.7,20 17.7,18 "/>
<polyline class="st0" points="17.7,6.2 11.5,6.2 11.5,0 "/>
<rect y="8" class="st0" width="20" height="10"/>
<polyline class="st0" points="11.7,15.5 8.3,15.5 8.3,10.5 "/>
<line class="st0" x1="3.3" y1="10.5" x2="6.7" y2="15.4"/>
<line class="st0" x1="6.7" y1="10.5" x2="3.3" y2="15.5"/>
<path class="st0" d="M16.7,11.3c0-0.5-0.4-0.8-0.8-0.8h-1.5c-0.6,0-1,0.5-1,1l0,0c0,0.4,0.2,0.7,0.6,0.9l2.2,1.1
	c0.3,0.2,0.6,0.5,0.6,0.9l0,0c0,0.6-0.5,1-1,1h-1.5c-0.5,0-0.8-0.4-0.8-0.8"/>
</svg>
