<?xml version="1.0" encoding="utf-8"?>
<!-- Generator: Adobe Illustrator 23.1.1, SVG Export Plug-In . SVG Version: 6.00 Build 0)  -->
<svg version="1.1" id="Ebene_1" xmlns="http://www.w3.org/2000/svg" xmlns:xlink="http://www.w3.org/1999/xlink" x="0px" y="0px"
	 viewBox="0 0 20 20" style="enable-background:new 0 0 20 20;" xml:space="preserve">
<style type="text/css">
	.st0{fill:none;}
</style>
<g>
	<circle class="st0" cx="4.2" cy="4.2" r="0.4"/>
	<polyline class="st0" points="6.4,13 0,13 0,0 20,0 20,11.5 	"/>
	<path class="st0" d="M11,10.9H3.8c-1,0-1.7-0.8-1.7-1.7V3.7C2,2.8,2.8,2,3.8,2h12.5c1,0,1.7,0.8,1.7,1.7v6"/>
	<g>
		<circle class="st0" cx="10" cy="6.5" r="2.6"/>
	</g>
</g>
<g>
	<path class="st0" d="M6,20L6,20c1.2-1.6,3.1-2.6,5.1-2.6h3.7V20l5.1-4.5L14.9,11v2.6h-2.4C8.9,13.6,6,16.4,6,20L6,20z"/>
</g>
</svg>
