<?xml version="1.0" encoding="utf-8"?>
<!-- Generator: Adobe Illustrator 23.1.1, SVG Export Plug-In . SVG Version: 6.00 Build 0)  -->
<svg version="1.1" id="Ebene_1" xmlns="http://www.w3.org/2000/svg" xmlns:xlink="http://www.w3.org/1999/xlink" x="0px" y="0px"
	 viewBox="0 0 20 20" style="enable-background:new 0 0 20 20;" xml:space="preserve">
<style type="text/css">
	.st0{fill:none;}
</style>
<polyline class="st0" points="17.7,8 17.7,6.2 11.5,0 2.3,0 2.3,8 "/>
<polyline class="st0" points="2.3,18 2.3,20 17.7,20 17.7,18 "/>
<polyline class="st0" points="17.7,6.2 11.5,6.2 11.5,0 "/>
<rect y="8" class="st0" width="20" height="10"/>
<path class="st0" d="M3.3,15.5v-5h2.1c0.7,0,1.2,0.6,1.2,1.2l0,0c0,0.7-0.6,1.2-1.2,1.2H3.3"/>
<path class="st0" d="M9.2,15.5H8.3v-5h0.8c1.4,0,2.5,1.1,2.5,2.5l0,0C11.7,14.4,10.5,15.5,9.2,15.5z"/>
<line class="st0" x1="15.8" y1="13" x2="13.3" y2="13"/>
<polyline class="st0" points="13.3,15.5 13.3,10.5 16.7,10.5 "/>
</svg>
