<?xml version="1.0" encoding="utf-8"?>
<!-- Generator: Adobe Illustrator 23.1.1, SVG Export Plug-In . SVG Version: 6.00 Build 0)  -->
<svg version="1.1" id="Ebene_1" xmlns="http://www.w3.org/2000/svg" x="0px" y="0px"
     viewBox="0 0 36 36" style="enable-background:new 0 0 36 36;" xml:space="preserve">
<g>
	<path d="M24.2,11.8c-3.4-3.4-9.1-3.4-12.5,0c-1.1,1.1-1.8,2.4-2.2,3.8l3.5,0.5c0.3-0.7,0.6-1.3,1.2-1.8c2.1-2.1,5.4-2.1,7.5,0
		l-2.5,2.5L28,18l-1.2-8.8L24.2,11.8z"/>
	<path d="M21.8,21.8c-2.1,2.1-5.4,2.1-7.5,0l2.5-2.5L8,18l1.2,8.8l2.5-2.5c3.4,3.4,9.1,3.4,12.5,0c1.1-1.1,1.8-2.4,2.2-3.8L22.9,20
		C22.7,20.6,22.3,21.2,21.8,21.8z"/>
</g>
</svg>
