<?xml version="1.0" encoding="utf-8"?>
<!-- Generator: Adobe Illustrator 23.1.1, SVG Export Plug-In . SVG Version: 6.00 Build 0)  -->
<svg version="1.1" id="Ebene_1" xmlns="http://www.w3.org/2000/svg" xmlns:xlink="http://www.w3.org/1999/xlink" x="0px" y="0px"
	 viewBox="0 0 20 20" style="enable-background:new 0 0 20 20;" xml:space="preserve">
<style type="text/css">
	.st0{fill:none;}
</style>
<polyline class="st0" points="17.7,8 17.7,6.2 11.5,0 2.3,0 2.3,8 "/>
<polyline class="st0" points="2.3,18 2.3,20 17.7,20 17.7,18 "/>
<polyline class="st0" points="17.7,6.2 11.5,6.2 11.5,0 "/>
<path class="st0" d="M4.2,15.5H3.3v-5h0.8c1.4,0,2.5,1.1,2.5,2.5l0,0C6.7,14.4,5.5,15.5,4.2,15.5z"/>
<path class="st0" d="M10,15.5L10,15.5c-0.9,0-1.7-0.7-1.7-1.7v-1.7c0-0.9,0.7-1.7,1.7-1.7l0,0c0.9,0,1.7,0.7,1.7,1.7v1.7
	C11.7,14.7,10.9,15.5,10,15.5z"/>
<path class="st0" d="M16.7,15.5H15c-0.9,0-1.7-0.7-1.7-1.7v-1.7c0-0.9,0.7-1.7,1.7-1.7h1.7"/>
<rect y="8" class="st0" width="20" height="10"/>
</svg>
