<svg width="137" height="24" viewBox="0 0 137 24" fill="none" xmlns="http://www.w3.org/2000/svg">
<g clip-path="url(#clip0_815_1556)">
<path fill-rule="evenodd" clip-rule="evenodd" d="M125.021 17.735C125.091 17.7054 125.154 17.6622 125.207 17.6079L131.983 10.0778V23.4104C131.983 23.4848 131.997 23.5584 132.026 23.6271C132.055 23.6957 132.096 23.758 132.149 23.8104C132.202 23.8628 132.265 23.9042 132.334 23.9322C132.402 23.9602 132.476 23.9743 132.551 23.9737H136.225C136.299 23.9737 136.372 23.9591 136.44 23.9308C136.509 23.9025 136.571 23.861 136.623 23.8087C136.676 23.7564 136.717 23.6943 136.745 23.626C136.774 23.5576 136.788 23.4844 136.788 23.4104V0.600993C136.788 0.451601 136.729 0.308328 136.623 0.202692C136.518 0.097056 136.374 0.0377103 136.225 0.0377103H135.442C135.364 0.0313949 135.286 0.0424933 135.212 0.0702061C135.139 0.0979189 135.073 0.141556 135.018 0.197975L124.792 11.8337L114.582 0.195618C114.53 0.134199 114.465 0.0848911 114.392 0.0511125C114.318 0.017334 114.239 -0.000106343 114.158 4.87845e-07L113.378 0.0164988C113.228 0.0164988 113.085 0.0758445 112.979 0.181481C112.874 0.287117 112.814 0.43039 112.814 0.579782V23.4104C112.814 23.4845 112.829 23.5579 112.857 23.6263C112.885 23.6948 112.926 23.757 112.979 23.8094C113.031 23.8618 113.093 23.9033 113.162 23.9315C113.23 23.9597 113.304 23.974 113.378 23.9737H117.043C117.192 23.9737 117.335 23.9144 117.441 23.8087C117.547 23.7031 117.606 23.5598 117.606 23.4104V10.0778L124.403 17.6173C124.455 17.6695 124.517 17.7108 124.586 17.7387C124.654 17.7666 124.727 17.7806 124.801 17.7799C124.877 17.7798 124.952 17.7645 125.021 17.735ZM0 11.994C0 15.391 1.14464 18.2373 3.43391 20.5328C5.72318 22.8284 8.5718 23.9754 11.9798 23.9738C15.3878 23.9722 18.2356 22.8276 20.5233 20.5399C22.811 18.2491 23.9556 15.4004 23.9572 11.994C23.9588 8.58762 22.8141 5.73978 20.5233 3.45051C18.2356 1.16281 15.3878 0.0181754 11.9798 0.0166042C8.5718 0.0150329 5.72318 1.15967 3.43391 3.45051C1.14464 5.74921 0 8.59705 0 11.994ZM17.179 17.3464C15.8419 18.7841 14.1135 19.5029 11.9939 19.5029C9.84764 19.4966 8.10908 18.7746 6.77825 17.337C5.44743 15.8993 4.78202 14.1152 4.78202 11.9846C4.77416 9.8556 5.43957 8.07226 6.77825 6.63459C8.11693 5.19692 9.84528 4.47809 11.9633 4.47809C14.1096 4.48437 15.8481 5.20635 17.179 6.64402C18.5098 8.08169 19.1752 9.86502 19.1752 11.994C19.1815 14.1246 18.5161 15.9087 17.179 17.3464ZM108.532 14.0447H105.077L99.616 0.375106L99.5995 0.330326C99.5506 0.241832 99.4789 0.168048 99.3919 0.116651C99.3048 0.0652545 99.2056 0.0381225 99.1045 0.0380784H95.0673C94.9691 0.0381222 94.8727 0.0638066 94.7876 0.112587C94.7024 0.161367 94.6315 0.231551 94.5818 0.316185L94.5606 0.360964L85.4255 23.2222C85.397 23.2901 85.3825 23.3631 85.383 23.4367C85.383 23.5861 85.4424 23.7294 85.548 23.835C85.6537 23.9407 85.7969 24 85.9463 24H89.8398C89.9589 24 90.075 23.9624 90.1715 23.8926C90.268 23.8228 90.34 23.7243 90.3772 23.6111L92.2626 18.8409H101.956L103.78 23.6017C103.816 23.7168 103.887 23.8176 103.984 23.8892C104.08 23.9609 104.197 23.9997 104.318 24H108.225C108.375 24 108.518 23.9407 108.624 23.835C108.729 23.7294 108.789 23.5861 108.789 23.4367C108.789 23.3551 108.77 23.2745 108.735 23.201L107 18.8362H108.539C108.688 18.8362 108.832 18.7768 108.937 18.6712C109.043 18.5656 109.102 18.4223 109.102 18.2729V14.6127C109.103 14.5378 109.089 14.4634 109.06 14.3941C109.032 14.3247 108.99 14.2618 108.936 14.2089C108.883 14.156 108.82 14.1142 108.751 14.086C108.681 14.0578 108.607 14.0438 108.532 14.0447ZM94.1811 14.0447L97.212 6.42745L100.132 14.0447H94.1811ZM82.7385 3.0284C82.7067 2.96148 82.662 2.90149 82.607 2.85187L82.5504 2.80238C80.2046 0.945191 77.4345 0.0165985 74.2402 0.0165985C70.8574 0.0228834 68.0205 1.17145 65.7297 3.46229C63.4389 5.75313 62.2887 8.58133 62.2793 11.9469C62.2809 15.3863 63.4278 18.2483 65.7203 20.5328C68.0127 22.8174 70.8527 23.9644 74.2402 23.9738C77.5806 23.9754 80.4536 22.9674 82.8592 20.95L82.8945 20.9217C82.9967 20.8172 83.0535 20.6766 83.0524 20.5305V10.1604C83.0524 10.011 82.9931 9.86774 82.8874 9.76211C82.7818 9.65647 82.6385 9.59713 82.4891 9.59713H75.6237C75.4743 9.59713 75.331 9.65647 75.2254 9.76211C75.1197 9.86774 75.0604 10.011 75.0604 10.1604V13.4953C75.061 13.6443 75.1206 13.787 75.2262 13.8921C75.3318 13.9972 75.4747 14.0563 75.6237 14.0563H78.2492V18.1595C77.3253 18.8414 75.9992 19.1824 74.2709 19.1824C72.1199 19.1808 70.3844 18.5256 69.0646 17.2168C67.7448 15.9079 67.0794 14.1403 67.0684 11.9139C67.0668 9.83674 67.7244 8.13353 69.041 6.80428C70.3577 5.47502 72.0908 4.80411 74.2402 4.79154C76.0449 4.7687 77.8133 5.29921 79.3074 6.3117L79.404 6.36826C79.5152 6.46818 79.6613 6.52005 79.8106 6.51254C79.9599 6.50503 80.1001 6.43876 80.2006 6.3282L82.647 3.64848C82.6968 3.59358 82.7352 3.52941 82.7602 3.45964C82.7851 3.38986 82.796 3.31586 82.7923 3.24186C82.7886 3.16786 82.7703 3.09532 82.7385 3.0284ZM58.7418 19.4745H57.1981V4.4992H58.5062C58.6556 4.4992 58.7988 4.43985 58.9045 4.33421C59.0101 4.22858 59.0694 4.0853 59.0694 3.93591V0.563284C59.0694 0.413892 59.0101 0.270618 58.9045 0.164982C58.7988 0.0593462 58.6556 4.87845e-07 58.5062 4.87845e-07H51.1175C50.9685 0.000623854 50.8258 0.0602447 50.7207 0.165813C50.6156 0.271382 50.5566 0.414299 50.5566 0.563284V3.93591C50.5566 4.0849 50.6156 4.22781 50.7207 4.33338C50.8258 4.43895 50.9685 4.49857 51.1175 4.4992H52.4232V19.4745H50.8818C50.7336 19.4751 50.5917 19.5341 50.4867 19.6387C50.3817 19.7432 50.3221 19.8849 50.3209 20.0331V23.4104C50.3209 23.5594 50.3799 23.7023 50.485 23.8079C50.5902 23.9135 50.7328 23.9731 50.8818 23.9737H58.7418C58.8158 23.9737 58.8891 23.9591 58.9574 23.9308C59.0257 23.9025 59.0878 23.861 59.1401 23.8087C59.1925 23.7564 59.2339 23.6943 59.2622 23.626C59.2906 23.5576 59.3051 23.4844 59.3051 23.4104V20.0331C59.3039 19.8845 59.244 19.7424 59.1385 19.6378C59.033 19.5332 58.8904 19.4745 58.7418 19.4745ZM40.832 13.7521L47.1012 23.0758L47.1106 23.064C47.1715 23.1481 47.2078 23.2474 47.2158 23.351C47.2237 23.4545 47.2028 23.5582 47.1555 23.6506C47.1082 23.743 47.0363 23.8206 46.9477 23.8747C46.8591 23.9288 46.7572 23.9574 46.6534 23.9572H42.2532C42.1614 23.9591 42.0705 23.9387 41.9884 23.8976C41.9063 23.8566 41.8354 23.7961 41.7819 23.7215L35.2817 14.0444H32.1424V23.3987C32.1424 23.5476 32.0834 23.6906 31.9783 23.7961C31.8731 23.9017 31.7305 23.9613 31.5815 23.9619H27.9025C27.8285 23.9619 27.7552 23.9474 27.6869 23.9191C27.6186 23.8908 27.5565 23.8493 27.5042 23.797C27.4519 23.7447 27.4104 23.6826 27.3821 23.6142C27.3537 23.5459 27.3392 23.4726 27.3392 23.3987V10.1344C27.3392 10.06 27.3539 9.9864 27.3825 9.91775C27.4111 9.8491 27.453 9.78679 27.5058 9.73442C27.5586 9.68206 27.6213 9.64066 27.6902 9.61264C27.7591 9.58461 27.8328 9.5705 27.9072 9.57112H32.2673L27.4405 2.38513C27.3745 2.2913 27.3391 2.17934 27.3392 2.06461V0.563303C27.3392 0.488934 27.3539 0.4153 27.3825 0.34665C27.4111 0.278 27.453 0.215694 27.5058 0.163326C27.5586 0.110958 27.6213 0.0695659 27.6902 0.0415371C27.7591 0.0135082 27.8328 -0.000602128 27.9072 2.02123e-05H37.787C43.3727 2.02123e-05 46.1656 2.29793 46.1656 6.89376C46.164 10.6977 44.3862 12.9838 40.832 13.7521ZM38.8877 4.478H34.6053L38.0251 9.56876H38.8405C40.7653 9.54205 41.7544 8.66452 41.8078 6.93618C41.7465 5.36181 40.7731 4.54242 38.8877 4.478Z" fill="#F15B47"/>
</g>
<defs>
<clipPath id="clip0_815_1556">
<rect width="137" height="24" fill="white"/>
</clipPath>
</defs>
</svg>
