<?xml version="1.0" encoding="utf-8"?>
<!-- Generator: Adobe Illustrator 25.0.0, SVG Export Plug-In . SVG Version: 6.00 Build 0)  -->
<svg version="1.1" id="Ebene_1" xmlns="http://www.w3.org/2000/svg" xmlns:xlink="http://www.w3.org/1999/xlink" x="0px" y="0px"
	 viewBox="0 0 20 20" style="enable-background:new 0 0 20 20;" xml:space="preserve">
<path d="M10,0.8c-5.1,0-9.2,4.1-9.2,9.2s4.1,9.2,9.2,9.2s9.2-4.1,9.2-9.2S15.1,0.8,10,0.8z M10,14.9c-0.4,0-0.8-0.4-0.8-0.8
	c0-0.4,0.4-0.8,0.8-0.8s0.8,0.4,0.8,0.8C10.8,14.5,10.4,14.9,10,14.9z M10.8,10.8c0,0.4-0.4,0.8-0.8,0.8s-0.8-0.4-0.8-0.8V5.9
	c0-0.4,0.4-0.8,0.8-0.8s0.8,0.4,0.8,0.8V10.8z"/>
</svg>
