<?xml version="1.0" encoding="utf-8"?>
<!-- Generator: Adobe Illustrator 23.1.1, SVG Export Plug-In . SVG Version: 6.00 Build 0)  -->
<svg version="1.1" id="Ebene_1" xmlns="http://www.w3.org/2000/svg" x="0px" y="0px"
     viewBox="0 0 20 20" style="enable-background:new 0 0 20 20;" xml:space="preserve">
<title>Zeichenfläche 1</title>
<g>
	<path d="M9.3,0.9l-9.2,17c-0.3,0.5,0.1,1.2,0.7,1.2h18.4c0.6,0,1-0.7,0.7-1.2l-9.2-17C10.4,0.4,9.6,0.4,9.3,0.9z M10,15.9L10,15.9
		c-0.4,0-0.8-0.4-0.8-0.8v0c0-0.4,0.4-0.8,0.8-0.8h0c0.4,0,0.8,0.4,0.8,0.8v0C10.8,15.5,10.4,15.9,10,15.9z M9.2,11.8V6.9
		c0-0.4,0.4-0.8,0.8-0.8h0c0.4,0,0.8,0.4,0.8,0.8v4.9c0,0.4-0.4,0.8-0.8,0.8h0C9.6,12.6,9.2,12.2,9.2,11.8z"/>
</g>
</svg>
